<?xml version="1.0" encoding="UTF-8"?>
<svg id="Layer_1" data-name="Layer 1" xmlns="http://www.w3.org/2000/svg" viewBox="0 0 425.78 722.44">
  <defs>
    <style>
      .cls-1 {
        fill: #fff4a1;
      }

      .cls-2 {
        stroke: #4b4859;
      }

      .cls-2, .cls-3 {
        stroke-miterlimit: 10;
      }

      .cls-2, .cls-4 {
        fill: #4b4859;
      }

      .cls-5 {
        fill: #dfe5ea;
      }

      .cls-6 {
        fill: #3c324c;
      }

      .cls-7 {
        fill: #fff;
      }

      .cls-3 {
        stroke: #3b3844;
      }

      .cls-3, .cls-8 {
        fill: #3b3844;
      }

      .cls-9 {
        fill: #d3d7dd;
      }

      .cls-10 {
        fill: #f5e5e4;
      }

      .cls-11 {
        fill: #fcd842;
      }

      .cls-12 {
        fill: #f2a96d;
      }

      .cls-13 {
        fill: #6c717f;
      }
    </style>
  </defs>
  <g id="Layer_15" data-name="Layer 15">
    <path class="cls-12" d="M295.91,661.7c.63.45,15.5,10.96,27.48,21.32,9.53,8.25,17.24,16.4,14.51,19.34-6.23,6.71-32.83-8.87-43.37-1.44-10.55,7.43.48,15.58-3.36,20.28-3.83,4.71-18.93-4.46-34.99-18.84-16.05-14.38-26.65-36.72-25.64-41.94s3.29-8.85,21.3-15.65c13.64-5.45,21.89-6.1,30.36-4.87,8.46,1.22,33.49,10.88,45.56,18.38,12.07,7.51,24.91,15.51,22.83,19.65-2.07,4.15-13.25,1.69-17.51,1.53-1.34-.05-2.78.25-4.13.7l.86-.44c-11.51-11.7-33.23-17.84-33.9-18.02h0Z"/>
    <path class="cls-12" d="M329.81,679.72l-.86.44c-3.08,1.03-5.69,2.81-5.56,2.86-11.98-10.36-26.85-20.87-27.48-21.32.67.18,22.39,6.32,33.9,18.02h0Z"/>
    <path class="cls-12" d="M328.95,680.16l-5.56,2.86c-.13-.05,2.48-1.83,5.56-2.86Z"/>
    <path class="cls-12" d="M72.46,668.13c-1.43.85-24.38,14.45-28.42,18.42-6.44-1.94-18.95,3.06-22.62-2.04-2.9-4.03,9.02-14.44,21.61-20.88,12.58-6.45,28.67-12.05,28.67-12.05,1.34-.69,25.17-10.18,48.84-3.58,8.96,1.85,24.65,8.13,22.18,16.6-2.48,8.47-37.64,56.95-51.54,57.19-10.35.19-6.03-9.59-6.44-13.53-.42-3.93-3.08-7.59-12.87-5.52-9.78,2.06-21.88,8.3-30.54,7.81-8.65-.5-6.2-9.41,2.73-18.56.94-.97,2-2,3.15-3.07,9.31-8.69,24.11-19.91,25.25-20.79h0Z"/>
    <path class="cls-12" d="M72.46,668.13c-1.14.88-15.94,12.1-25.25,20.79-.68-1.22-1.78-1.96-3.17-2.37,4.04-3.97,26.99-17.57,28.42-18.42Z"/>
    <path class="cls-12" d="M47.21,688.92l-3.17-2.37c1.39.41,2.49,1.15,3.17,2.37Z"/>
    <path class="cls-6" d="M94.13,346.43c-7.1,2.11-22.41,15.2-35.94,28.91-14.88,15.07-30.98,36.24-36.2,46.48-9.98,19.54-19.96,57.38-11.23,61.12s15.39-19.54,34.1-30.77c8.43-5.06,32.75-15.51,63.44-53.21s-7.07-54.64-14.16-52.53h-.01Z"/>
    <path class="cls-6" d="M318.32,355.87c4.15,0,12.84,11.2,23.19,17.93,10.35,6.72,35.4,17.58,56.29,39.74s34.52,60.85,24.76,66.33c-6.62,3.3-15.4-12.78-36.11-23.26s-46.12-10.68-57.07-20.91-19.45-33.9-19.45-45.9,4.24-33.92,8.38-33.92h.01Z"/>
    <path class="cls-6" d="M347.71,440.38s16.79,59.49,14.87,128.09c-1.1,39.16-31.69,68.63-70.68,86.7,34.55-23,43.33-71.16,44.41-102.26,1.09-31.1-6.11-92.61-32.18-135.09-24.46-43.76-70.37-57.71-95.43-62.94-25.05-5.24-72.81-14.28-111.46,10.07-38.64,24.35-60.43,113.02-58.65,174.59,1.55,59.4,45.1,107.29,46.21,108.51-6.62-4.3-12.76-9.21-18.23-14.81-58.25-48.47-34.54-154.48-33.48-157.09,22.6-92.54,40.77-112.54,46.66-123.68s7.03-18.18,6.85-25.25c-.14-5.75-4.17-13.42-4.17-13.42,0,0-6.32-11.67,4.18-22.7,10.5-11.02,62.68-19.68,94.27-17.06,31.58,2.62,132.54,20.4,137.92,32.38,5.37,11.98,8.32,27.32,7.01,32.96-1.31,5.64-1.04,14.54,1.31,23.61l20.59,77.39h0Z"/>
    <path class="cls-10" d="M304.13,417.82c26.07,42.48,33.27,103.99,32.18,135.09-1.08,31.1-9.86,79.26-44.41,102.26-29.31,13.61-63.37,20.77-93.22,20.77-33.57,0-80.03-5.91-113.88-27.89-1.11-1.22-44.66-49.11-46.21-108.51-1.78-61.57,20.01-150.24,58.65-174.59,38.65-24.35,86.41-15.31,111.46-10.07,25.06,5.23,70.97,19.18,95.43,62.94h0Z"/>
    <path class="cls-6" d="M222.23,92.87c-.52-.28-10.86-5.82-14.54-8.75-3.73-2.96-7.93-11.36-8.05-11.62.43.29,14.21,9.82,17.11,11.4,2.95,1.62,13.96,8.52,20.71,10.68,6.76,2.15,44.69,14.14,64.1,31.3,19.41,17.17,62.46,71.51,49.75,144.22-6.3,36.56-18.92,61.38-26.36,70.35-7.43,8.98-78.48,10.59-106.83,9.77-28.35-.83-62.03-5.85-82.29-9.77s-42.97-12.34-48.69-17.69c-5.73-5.35-26.77-33.09-26.75-59.1.49-15.14,5.3-14.44,17.14-50.39,15.61-47.37,39.32-71.16,39.32-71.16,19.66-21.8,49.63-41.27,106.9-44.36,0,0-5.63-.29-11.25-1.78-5.63-1.49-11.94-5.37-11.94-5.37.06,0,7.55-.74,11.8-.09,4.12.64,9.54,2.26,9.87,2.36h0ZM303.88,322.18c37.66-29.74,32.15-83.67,32.15-83.67-3.93-46.23-22.33-71.65-52.49-80.13-34.55-9.4-61.11,21.23-67.79,51.66-6.68,30.44,6.68,53.45,6.68,53.45l-80.6-10.9c20.46-24.7,24.55-47.79,24.55-47.79,6.83-31.13,1.75-51.89-15.16-62.33-18.63-7.66-38.37,11.47-47.35,29.31-14.22,26.84-12.65,33.33-20.25,51.78-7.6,18.44-14.56,30.79-14.29,47.46.19,12.17,7.57,38.84,30.98,49.65s45.03,19.55,87.75,23.03,97.78-4.11,115.82-21.52h0Z"/>
    <path class="cls-10" d="M336.03,238.51s5.51,53.93-32.15,83.67c-18.04,17.41-73.1,25-115.82,21.52s-64.34-12.22-87.75-23.03-30.79-37.48-30.98-49.65c-.27-16.67,6.69-29.02,14.29-47.46,7.6-18.45,6.03-24.94,20.25-51.78,8.98-17.84,28.72-36.97,47.35-29.31,16.91,10.44,21.99,31.2,15.16,62.33,0,0-4.09,23.09-24.55,47.79l80.6,10.9s-13.36-23.01-6.68-53.45c6.68-30.43,33.24-61.06,67.79-51.66,30.16,8.48,48.56,33.9,52.49,80.13h0Z"/>
    <path class="cls-12" d="M243.64,266.16c0,2.89-9.34,18.3-20.12,25.54-10.77,7.23-33.47,14.79-48.64,13.34-23.31-2.22-39.88-19.16-44.78-25.02s-13.24-18.43-11.84-22.59c1.41-4.15,17.81-3.7,24.51-10.88,6.69-7.17,21.63-17.68,42.67-15.29,21.03,2.39,35.02,20.31,39.08,22.47,4.06,2.15,19.12,10.5,19.12,12.43h0ZM220.62,264.23c.14-.42.14-.89-.02-1.3-.08-.2-.19-.37-.34-.51-.43-.39-1.11-.41-1.61-.12-.49.29-.8.83-.91,1.4-.08.38-.07.79.07,1.15.14.35.46.76.85.85.43.1.9-.11,1.22-.39.34-.29.6-.66.74-1.08h0ZM216.1,263.45c4.08-4.19-.59-11.9-4.96-16.97s-15.49-12.77-30.72-13.5c-15.22-.73-15.23,8.99-15.23,8.99-.39,1.89.76,9.78,8.73,12.3,7.98,2.53,9.97,2.16,13.62,4.1s9.69,5.54,14.29,7.36c4.59,1.81,10.19,1.92,14.27-2.28h0Z"/>
    <path class="cls-10" d="M220.6,262.93c.16.41.16.88.02,1.3s-.4.79-.74,1.08c-.32.28-.79.49-1.22.39-.39-.09-.71-.5-.85-.85-.14-.36-.15-.77-.07-1.15.11-.57.42-1.11.91-1.4.5-.29,1.18-.27,1.61.12.15.14.26.31.34.51h0Z"/>
    <path class="cls-10" d="M211.14,246.48c4.37,5.07,9.04,12.78,4.96,16.97-4.08,4.2-9.68,4.09-14.27,2.28-4.6-1.82-10.64-5.42-14.29-7.36s-5.64-1.57-13.62-4.1c-7.97-2.52-9.12-10.41-8.73-12.3,0,0,0-9.72,15.23-8.99,15.23.73,26.35,8.43,30.72,13.5h0Z"/>
    <path class="cls-6" d="M238.49,265.67s-25.89,16.43-62.78,16.25c-24.93-.57-51.12-22.79-51.12-22.79,0,0,16.11,25.03,52.07,26.31,41.45,1.47,61.83-19.76,61.83-19.76h0Z"/>
    <path class="cls-6" d="M270.65,201.27c13.71,0,24.83,12.21,24.83,27.29s-11.12,27.28-24.83,27.28-24.83-12.21-24.83-27.28,11.11-27.29,24.83-27.29h0ZM286.98,228.32c3.62-2.54,3.75-8.59.29-13.5-3.46-4.92-9.19-6.84-12.81-4.3-3.61,2.54-3.74,8.59-.29,13.5,3.46,4.92,9.19,6.85,12.81,4.3ZM283.13,247.35c1.24-.87,1.42-2.74.4-4.19s-2.85-1.92-4.08-1.05c-1.24.87-1.41,2.75-.4,4.19,1.02,1.45,2.85,1.92,4.08,1.05ZM270.03,249.41c.66-.46.77-1.44.25-2.17-.52-.74-1.47-.96-2.13-.5s-.77,1.44-.25,2.17c.51.74,1.47.96,2.13.5ZM262.86,242.86c.63-.44.72-1.4.2-2.14-.52-.73-1.45-.98-2.08-.53-.63.44-.72,1.4-.2,2.14s1.45.98,2.08.53ZM256.6,230.62c2.16-1.52,2.36-4.94.46-7.64s-5.18-3.67-7.34-2.15c-2.15,1.51-2.36,4.93-.46,7.64,1.9,2.7,5.19,3.66,7.34,2.15Z"/>
    <path class="cls-7" d="M287.27,214.82c3.46,4.91,3.33,10.96-.29,13.5-3.62,2.55-9.35.62-12.81-4.3-3.45-4.91-3.32-10.96.29-13.5,3.62-2.54,9.35-.62,12.81,4.3Z"/>
    <path class="cls-7" d="M283.53,243.16c1.02,1.45.84,3.32-.4,4.19-1.23.87-3.06.4-4.08-1.05-1.01-1.44-.84-3.32.4-4.19,1.23-.87,3.06-.4,4.08,1.05Z"/>
    <path class="cls-7" d="M270.28,247.24c.52.73.41,1.71-.25,2.17s-1.62.24-2.13-.5c-.52-.73-.41-1.71.25-2.17s1.61-.24,2.13.5Z"/>
    <path class="cls-7" d="M263.06,240.72c.52.74.43,1.7-.2,2.14-.63.45-1.56.21-2.08-.53s-.43-1.7.2-2.14c.63-.45,1.56-.2,2.08.53Z"/>
    <path class="cls-7" d="M257.06,222.98c1.9,2.7,1.7,6.12-.46,7.64-2.15,1.51-5.44.55-7.34-2.15-1.9-2.71-1.69-6.13.46-7.64,2.16-1.52,5.44-.55,7.34,2.15h0Z"/>
    <path class="cls-6" d="M126.54,192.73c12.6,0,22.81,11.36,22.81,25.37s-10.21,25.37-22.81,25.37-22.82-11.36-22.82-25.37,10.22-25.37,22.82-25.37ZM142.05,218.26c3.2-1.87,3.63-7.11.95-11.7-2.68-4.59-7.46-6.79-10.66-4.92-3.21,1.87-3.63,7.11-.95,11.7s7.45,6.8,10.66,4.92ZM121.66,233.37c.5-.3.59-1.07.21-1.72-.38-.66-1.1-.96-1.6-.66-.51.29-.6,1.06-.22,1.72.39.65,1.11.95,1.61.66h0ZM116.17,228.83c.51-.29.6-1.06.22-1.72-.39-.65-1.11-.95-1.61-.66-.5.3-.59,1.07-.21,1.72.38.66,1.1.96,1.6.66h0ZM113.47,218.41c1.89-1.11,2.32-3.9.96-6.24-1.36-2.33-4-3.33-5.9-2.22s-2.33,3.9-.96,6.23c1.36,2.34,4,3.33,5.9,2.23h0Z"/>
    <path class="cls-7" d="M143,206.56c2.68,4.59,2.25,9.83-.95,11.7-3.21,1.88-7.98-.33-10.66-4.92s-2.26-9.83.95-11.7c3.2-1.87,7.98.33,10.66,4.92Z"/>
    <path class="cls-7" d="M121.87,231.65c.38.65.29,1.42-.21,1.72-.5.29-1.22,0-1.61-.66-.38-.66-.29-1.43.22-1.72.5-.3,1.22,0,1.6.66h0Z"/>
    <path class="cls-7" d="M116.39,227.11c.38.66.29,1.43-.22,1.72-.5.3-1.22,0-1.6-.66-.38-.65-.29-1.42.21-1.72.5-.29,1.22,0,1.61.66h0Z"/>
    <path class="cls-7" d="M114.43,212.17c1.36,2.34.93,5.13-.96,6.24-1.9,1.1-4.54.11-5.9-2.23-1.37-2.33-.94-5.12.96-6.23s4.54-.11,5.9,2.22h0Z"/>
    <path class="cls-6" d="M102.1,198.48c.2-.29,15.01-18.42,31.24-12.14,16.24,6.28,19.23,25.22,19.35,25.11s1.12-22.84-18.84-29.56-31.76,16.59-31.76,16.59c0,0,.01,0,0,0Z"/>
    <path class="cls-6" d="M297.59,207.46s-13.22-14.13-29.42-10.2-25.33,21.83-25.49,22.16c0,0,4.65-23.66,26.99-26.56,20.54-2.66,27.91,14.6,27.91,14.6h.01Z"/>
    <path class="cls-4" d="M406.71,424.53s-8.67,31.89-26.98,50.22c0,0-10.21-8.93-23.99-12.98-.3-1.16-.62-2.26-.94-3.3,0,0-25.2-84.02-26.49-91.01-.3-1.61-.64-3.91-.98-6.5.41.36,12.48,11,16.37,12.62,3.97,1.64,43.04,19.77,63.01,50.95h0Z"/>
    <path class="cls-5" d="M314.17,352.63c-8.25,9.99-20.07,25.72-31.24,45.66l-22.48,11.8h-.02c-21.13,9.33-74.47,20.53-74.47,20.53,0,0-3.27-8.48-7.22-18.55-5.75-14.66-12.95-32.7-13.61-32.97l3.08.55s77.02,8.02,145.96-27.03h0Z"/>
    <path class="cls-2" d="M246.73,537.13c-2.13,20.99-3.65,40.66-4.45,57.55l-48.35,22.79c-4.63,2.18-10.08,1.64-14.19-1.42l-29.29-21.81-5.63-4.19,3.68-110.38c.22-6.81,4.08-12.97,10.1-16.13l13.5-7.09,88.33-46.35h.02l22.48-11.8c-13.1,23.39-25.3,52.57-29.77,85.06-2.51,18.26-4.68,36.47-6.43,53.78h0ZM165.12,485.72c0-3.38-2.75-6.12-6.13-6.12s-6.12,2.74-6.12,6.12,2.74,6.13,6.12,6.13,6.13-2.74,6.13-6.13ZM165.12,522.48c0-3.39-2.75-6.13-6.13-6.13s-6.12,2.74-6.12,6.13,2.74,6.12,6.12,6.12,6.13-2.74,6.13-6.12ZM165.12,559.23c0-3.39-2.75-6.13-6.13-6.13s-6.12,2.74-6.12,6.13,2.74,6.12,6.12,6.12,6.13-2.74,6.13-6.12Z"/>
    <path class="cls-9" d="M260.43,410.1l-88.33,46.35c-1.3-6.43-6.98-25.82-5.02-31.21,1.97-5.4,11.66-13.16,11.66-13.16,3.95,10.07,7.22,18.55,7.22,18.55,0,0,53.34-11.2,74.47-20.53h0Z"/>
    <path class="cls-11" d="M165.13,379.11c.66.27,7.86,18.31,13.61,32.97,0,0-9.69,7.76-11.66,13.16-1.96,5.39,3.72,24.78,5.02,31.21l-13.5,7.09s-8.32-7.42-19.43-17.94c1.95-8.48,7.34-17.53,5.65-22.73-1.68-5.21-11.31-18-11.31-18l22.32-27.4,9.29,1.64h0Z"/>
    <path class="cls-11" d="M158.99,479.6c3.38,0,6.13,2.74,6.13,6.12s-2.75,6.13-6.13,6.13-6.12-2.74-6.12-6.13,2.74-6.12,6.12-6.12Z"/>
    <path class="cls-11" d="M158.99,516.35c3.38,0,6.13,2.74,6.13,6.13s-2.75,6.12-6.13,6.12-6.12-2.74-6.12-6.12,2.74-6.13,6.12-6.13Z"/>
    <path class="cls-11" d="M158.99,553.1c3.38,0,6.13,2.74,6.13,6.13s-2.75,6.12-6.13,6.12-6.12-2.74-6.12-6.12,2.74-6.13,6.12-6.13Z"/>
    <path class="cls-5" d="M155.83,377.47l-22.32,27.4-11.09,13.62c-5.36-2.99-22.14-15-30.92-23.09-2.13-2.8-3.91-5.4-5.25-7.72h-.01c-3.01-29.88-.75-49.56-.75-49.56,0,0,30.16,31.76,70.34,39.35h0Z"/>
    <path class="cls-8" d="M158.6,463.54c-6.02,3.16-9.88,9.32-10.1,16.13l-3.68,110.38,5.63,4.19-27.58,16.09c-4.9,2.85-11.04,2.43-15.5-1.07l-19.85-15.56c3.46-19.74,6.78-42.08,7.9-59.37.25-3.95.39-7.63.39-10.96,0-33.36-7.53-119.6-7.53-119.6-.86-5.63-1.52-11.01-2.04-16.09h.01c1.34,2.32,3.12,4.92,5.25,7.72,11.28,14.89,32.18,35.55,47.67,50.2,11.11,10.52,19.43,17.94,19.43,17.94h0Z"/>
    <path class="cls-9" d="M144.82,422.87c1.69,5.2-3.7,14.25-5.65,22.73-15.49-14.65-36.39-35.31-47.67-50.2,8.78,8.09,25.56,20.1,30.92,23.09l11.09-13.62s9.63,12.79,11.31,18Z"/>
    <path class="cls-4" d="M48.43,385.86c11.1-10.78,19.61-20.72,21.11-22.49-3.42,4.58-12.73,31.11-16.51,44.52-2.09,7.39-9.74,34.15-16.92,60.45-10.07-5.56-23.54-23.82-23.08-29.31.45-5.5,23.16-41.27,35.4-53.17h0Z"/>
    <path d="M69.61,363.53c-.06,0-.11-.02-.16-.06-.11-.09-.12-.24-.04-.35l.11-.12c.08-.11.24-.13.35-.05s.13.24.05.35c-.02.03-.04.05-.07.08l-.05.06c-.05.06-.12.09-.19.09h0Z"/>
    <path class="cls-5" d="M301.76,45.37c29.28,32.94,42.85,76.05,41.39,83.64-2.31,19.17-14.39,22.18-18.4,24.01l-4.76-6.68,1.36-6.29c.47-2.18.01-4.45-1.23-6.29-34.99-52.2-101.67-66.02-101.67-66.02,8.43-8.79,14.69-21.79,14.69-33.53,0-20.12-32.44-21.44-32.44-21.44,0,0-26.45-3.08-29.71,16.62-1.99,11.97,2.66,27.39,10.24,37.65-7.81,1.22-14.31,2.73-19.69,4.34-.02,0-.03,0-.05.02-14.38,4.32-20.77,9.33-22.85,11.18-2.86,2.54-.95,4.76-1.45,7.54-.5,2.77,0,4.16,0,4.16-1.52,1.43-2.43,2.96-2.97,4.41-.53-.45-17.56-15.05-9.63-41.99C132.64,29.33,179.34-2.41,204.88.15c25.54,2.55,67.61,12.27,96.88,45.22Z"/>
    <path class="cls-4" d="M320.12,133.76c1.24,1.84,1.7,4.11,1.23,6.29l-1.36,6.29c-7.67-6.58-15.13-12.02-22.26-15.56,1.96-.79,3.68-2.7,4.46-5.24,1.21-3.95-.34-7.93-3.46-8.88-2.39-.73-5.01.52-6.64,2.92,0,0-41.52-22.35-81.82-26.73-29.31-3.19-52.03-3.44-64.14-1.55-1.69.26-3.17.57-4.44.91,0,0-.92-2.14-.73-4.06.19-1.91.7-5.79,3.13-7.49,2.42-1.69,12.44-7.51,17.4-9.26.02,0,.03,0,.05-.02,5.38-1.61,11.88-3.12,19.69-4.34,4.9,6.63,11.01,11.1,17.36,11.1,6.74,0,13.85-4.13,19.86-10.4,0,0,66.68,13.82,101.67,66.02h0Z"/>
    <path class="cls-11" d="M297.73,130.78c-1.1.44-2.26.53-3.38.19-1.08-.33-1.97-1.03-2.62-1.96-1.24-1.75-1.63-4.35-.84-6.93.28-.93.69-1.77,1.2-2.5,1.63-2.4,4.25-3.65,6.64-2.92,3.12.95,4.67,4.93,3.46,8.88-.78,2.54-2.5,4.45-4.46,5.24h0Z"/>
    <path class="cls-11" d="M291.73,129.01l-4.95-2.33c-48.3-19.41-95.8-30.05-141.71-23.84,0,0-2.03-7.68,1.06-11.54,12.11-1.89,34.83-1.64,64.14,1.55,40.3,4.38,81.82,26.73,81.82,26.73-.51.73-.92,1.57-1.2,2.5-.79,2.58-.4,5.18.84,6.93h0Z"/>
    <path class="cls-4" d="M286.78,126.68s-11.5,11.3-27.97,14.99-83.2-7.12-96.15-9.59c-7.87-1.51-19.66-4.11-30.26-4.59-6.83-.31-13.17.26-17.66,2.57-11.47,5.9,0,14.35,0,14.35,0,0-12.8-5.6-8.17-16.04,0,0,.02-.04.07-.13.44-.78,3.42-4.97,15.85-5.5,0,0,14.72-15.92,22.57-19.9h0c45.91-6.21,93.41,4.43,141.71,23.84h0Z"/>
    <path class="cls-3" d="M233.14,34.21c0,11.74-6.26,24.74-14.69,33.53-6.01,6.27-13.12,10.4-19.86,10.4-6.35,0-12.46-4.47-17.36-11.1-7.58-10.26-12.23-25.68-10.24-37.65,3.26-19.7,29.71-16.62,29.71-16.62,0,0,32.44,1.32,32.44,21.44h0ZM222.08,51.44l-1.99-12.98-7.05,8.31s2.26.37,2.3.71c0,0-3.56,7.01-8.39,6.06-4.82-.95-3.72-16.95-3.72-16.95l6.82.49.35-4.15-6.93-.5c2.16-.93,3.77-3.07,3.98-5.67.3-3.66-2.27-6.83-5.76-7.08-1.2-.09-2.36.19-3.36.73-1.92,1.03-3.3,3.04-3.5,5.43-.22,2.6,1.02,4.94,2.99,6.16l.02.02-5.36-.39-1.57-.11-.34,4.15,1.91.14,4.9.35s-1.52,15.98-6.44,16.22c-4.93.24-7.3-7.2-7.3-7.2.1-.33,2.39-.37,2.39-.37l-5.61-9.23-4.09,12.54,3.13-1.71s7.83,16.66,18.21,22.93c9.85-2.55,21.6-20.04,21.6-20.04l2.81,2.14h0Z"/>
    <path class="cls-11" d="M220.09,38.46l1.99,12.98-2.81-2.14s-11.75,17.49-21.6,20.04c-14.28-13.8-17.5-24.65-16.96-25.11l-2.51,1.34,2.22-9.99,5.61,9.23s-2.29.04-2.39.37c0,0,2.37,7.44,7.3,7.2,4.92-.24,6.44-16.22,6.44-16.22l-4.9-.35c-.87-2.08,0-4.18,0-4.18l5.36.39-.02-.02c-.36-.39-4.68-5.29.51-11.59,1-.54,2.16-.82,3.36-.73,3.49.25,6.06,3.42,5.76,7.08-.21,2.6-1.82,4.74-3.98,5.67l6.93.5-.35,4.15-6.82-.49s-1.1,16,3.72,16.95c4.83.95,8.39-6.06,8.39-6.06-.04-.34-2.3-.71-2.3-.71l7.05-8.31h0ZM204.65,26.77c.18-2.11-1.26-3.93-3.21-4.07-1.94-.14-3.67,1.44-3.84,3.55s1.27,3.94,3.21,4.08c1.95.14,3.67-1.46,3.84-3.56Z"/>
    <path class="cls-4" d="M201.44,22.7c1.95.14,3.39,1.96,3.21,4.07-.17,2.1-1.89,3.7-3.84,3.56-1.94-.14-3.38-1.97-3.21-4.08s1.9-3.69,3.84-3.55Z"/>
    <path class="cls-1" d="M198.33,20.41c-5.19,6.3-.87,11.2-.51,11.59-1.97-1.22-3.21-3.56-2.99-6.16.2-2.39,1.58-4.4,3.5-5.43Z"/>
    <path class="cls-1" d="M190.91,31.52l1.57.11s-.87,2.1,0,4.18l-1.91-.14s.34-4.15.34-4.15Z"/>
    <path class="cls-1" d="M197.67,69.34c-10.38-6.27-18.21-22.93-18.21-22.93l-3.13,1.71,4.09-12.54-2.22,9.99,2.51-1.34c-.54.46,2.68,11.31,16.96,25.11h0Z"/>
    <path class="cls-13" d="M161.49,71.4c-4.96,1.75-14.98,7.57-17.4,9.26-2.43,1.7-2.94,5.58-3.13,7.49-.19,1.92.73,4.06.73,4.06-2.14.58-3.65,1.28-4.5,2.07,0,0-.5-1.39,0-4.16.5-2.78-1.41-5,1.45-7.54,2.08-1.85,8.47-6.86,22.85-11.18h0Z"/>
    <path class="cls-1" d="M134.22,98.69c.54-1.45,1.45-2.98,2.97-4.41.85-.79,2.36-1.49,4.5-2.07,1.27-.34,2.75-.65,4.44-.91-3.09,3.86-1.06,11.54-1.06,11.54h0c-3.78.51-7.54,1.14-11.3,1.88,0,0-.72-2.78.46-6.03h-.01Z"/>
    <path class="cls-13" d="M133.76,104.72c3.76-.74,7.52-1.37,11.3-1.88-7.85,3.98-22.57,19.9-22.57,19.9-12.43.53-15.41,4.72-15.85,5.5.05-.15.13-.3.2-.45,5.37-10.82,26.92-23.07,26.92-23.07h0Z"/>
    <path class="cls-4" d="M114.74,130.06c4.49-2.31,10.83-2.88,17.66-2.57,0,0-13.59,11.99-17.66,16.92,0,0-11.47-8.45,0-14.35Z"/>
    <path class="cls-2" d="M87.52,593.7c-1.72,9.8-3.48,18.95-5.02,26.54-1.68,8.26-11.85,12.86-19.72,9.84-17.99-6.9-53.02-14.46-62.25-49.37,0,0,18.26-37.77,21.93-58.23,1.7-9.44,7.5-31.62,13.65-54.14,7.18-26.3,14.83-53.06,16.92-60.45,3.78-13.41,13.09-39.94,16.51-44.52.02-.03.05-.06.07-.09.05-.05.08-.1.11-.13.03-.04.05-.06.05-.06,3.23-3.63,10.36-10.25,10.36-10.25-6.79,19.01-17.85,51.32-19.75,65.12,0,0,17.41,12.57,20.62,18.41l-12.86,24.55s25.43,53.28,27.18,73.4h.1c-1.12,17.3-4.44,39.64-7.9,59.38h0Z"/>
    <path class="cls-2" d="M242.28,594.68c.8-16.89,2.32-36.56,4.45-57.55,4.15-14.56,39.28-62.38,39.28-62.38l-10.34-24.06,34.27-18.47,18.37-64.76c1.29,6.99,26.49,91.01,26.49,91.01.32,1.04.64,2.14.94,3.3,9.06,33.72,13.73,117.15,6.99,134.6-6.98,18.06-107.85,58.5-116.52,54.16-4.39-2.2-5.44-24.1-3.93-55.85h0Z"/>
    <path class="cls-3" d="M95.81,523.37c0,3.33-.14,7.01-.39,10.96h-.1c-1.75-20.13-27.18-73.41-27.18-73.41l12.86-24.55c-3.21-5.84-20.62-18.41-20.62-18.41,1.9-13.8,12.96-46.11,19.75-65.12,3.13-8.77,5.36-14.72,5.36-14.72,0,0-2.26,19.68.75,49.56.52,5.08,1.18,10.46,2.04,16.09,0,0,7.53,86.24,7.53,119.6h0Z"/>
    <path class="cls-3" d="M327.33,360.96c.34,2.59.68,4.89.98,6.5l-18.37,64.76-34.27,18.47,10.34,24.06s-35.13,47.82-39.28,62.38c1.75-17.31,3.92-35.52,6.43-53.78,4.47-32.49,16.67-61.67,29.77-85.06,11.17-19.94,22.99-35.67,31.24-45.66h.01c6.49-7.87,10.77-12.18,10.77-12.18,0,0,1.22,11.86,2.38,20.51h0Z"/>
  </g>
  <g id="Layer_16" data-name="Layer 16">
    <path class="cls-5" d="M301.76,45.37c29.28,32.94,42.85,76.05,41.39,83.64-2.31,19.17-14.39,22.18-18.4,24.01l-4.76-6.68,1.36-6.29c.47-2.18.01-4.45-1.23-6.29-34.99-52.2-101.67-66.02-101.67-66.02,8.43-8.79,14.69-21.79,14.69-33.53,0-20.12-32.44-21.44-32.44-21.44,0,0-26.45-3.08-29.71,16.62-1.99,11.97,2.66,27.39,10.24,37.65-7.81,1.22-14.31,2.73-19.69,4.34-.02,0-.03,0-.05.02-14.38,4.32-20.77,9.33-22.85,11.18-2.86,2.54-.95,4.76-1.45,7.54-.5,2.77,0,4.16,0,4.16-1.52,1.43-2.43,2.96-2.97,4.41-.53-.45-17.56-15.05-9.63-41.99C132.64,29.33,179.34-2.41,204.88.15c25.54,2.55,67.61,12.27,96.88,45.22Z"/>
    <path class="cls-4" d="M320.12,133.76c1.24,1.84,1.7,4.11,1.23,6.29l-1.36,6.29c-7.67-6.58-15.13-12.02-22.26-15.56,1.96-.79,3.68-2.7,4.46-5.24,1.21-3.95-.34-7.93-3.46-8.88-2.39-.73-5.01.52-6.64,2.92,0,0-41.52-22.35-81.82-26.73-29.31-3.19-52.03-3.44-64.14-1.55-1.69.26-3.17.57-4.44.91,0,0-.92-2.14-.73-4.06.19-1.91.7-5.79,3.13-7.49,2.42-1.69,12.44-7.51,17.4-9.26.02,0,.03,0,.05-.02,5.38-1.61,11.88-3.12,19.69-4.34,4.9,6.63,11.01,11.1,17.36,11.1,6.74,0,13.85-4.13,19.86-10.4,0,0,66.68,13.82,101.67,66.02h0Z"/>
    <path class="cls-11" d="M297.73,130.78c-1.1.44-2.26.53-3.38.19-1.08-.33-1.97-1.03-2.62-1.96-1.24-1.75-1.63-4.35-.84-6.93.28-.93.69-1.77,1.2-2.5,1.63-2.4,4.25-3.65,6.64-2.92,3.12.95,4.67,4.93,3.46,8.88-.78,2.54-2.5,4.45-4.46,5.24h0Z"/>
    <path class="cls-11" d="M291.73,129.01l-4.95-2.33c-48.3-19.41-95.8-30.05-141.71-23.84,0,0-2.03-7.68,1.06-11.54,12.11-1.89,34.83-1.64,64.14,1.55,40.3,4.38,81.82,26.73,81.82,26.73-.51.73-.92,1.57-1.2,2.5-.79,2.58-.4,5.18.84,6.93h0Z"/>
    <path class="cls-4" d="M286.78,126.68s-11.5,11.3-27.97,14.99-83.2-7.12-96.15-9.59c-7.87-1.51-19.66-4.11-30.26-4.59-6.83-.31-13.17.26-17.66,2.57-11.47,5.9,0,14.35,0,14.35,0,0-12.8-5.6-8.17-16.04,0,0,.02-.04.07-.13.44-.78,3.42-4.97,15.85-5.5,0,0,14.72-15.92,22.57-19.9h0c45.91-6.21,93.41,4.43,141.71,23.84h0Z"/>
    <path class="cls-4" d="M233.14,34.21c0,11.74-6.26,24.74-14.69,33.53-6.01,6.27-13.12,10.4-19.86,10.4-6.35,0-12.46-4.47-17.36-11.1-7.58-10.26-12.23-25.68-10.24-37.65,3.26-19.7,29.71-16.62,29.71-16.62,0,0,32.44,1.32,32.44,21.44h0ZM222.08,51.44l-1.99-12.98-7.05,8.31s2.26.37,2.3.71c0,0-3.56,7.01-8.39,6.06-4.82-.95-3.72-16.95-3.72-16.95l6.82.49.35-4.15-6.93-.5c2.16-.93,3.77-3.07,3.98-5.67.3-3.66-2.27-6.83-5.76-7.08-1.2-.09-2.36.19-3.36.73-1.92,1.03-3.3,3.04-3.5,5.43-.22,2.6,1.02,4.94,2.99,6.16l.02.02-5.36-.39-1.57-.11-.34,4.15,1.91.14,4.9.35s-1.52,15.98-6.44,16.22c-4.93.24-7.3-7.2-7.3-7.2.1-.33,2.39-.37,2.39-.37l-5.61-9.23-4.09,12.54,3.13-1.71s7.83,16.66,18.21,22.93c9.85-2.55,21.6-20.04,21.6-20.04l2.81,2.14h0Z"/>
    <path class="cls-11" d="M220.09,38.46l1.99,12.98-2.81-2.14s-11.75,17.49-21.6,20.04c-14.28-13.8-17.5-24.65-16.96-25.11l-2.51,1.34,2.22-9.99,5.61,9.23s-2.29.04-2.39.37c0,0,2.37,7.44,7.3,7.2,4.92-.24,6.44-16.22,6.44-16.22l-4.9-.35c-.87-2.08,0-4.18,0-4.18l5.36.39-.02-.02c-.36-.39-4.68-5.29.51-11.59,1-.54,2.16-.82,3.36-.73,3.49.25,6.06,3.42,5.76,7.08-.21,2.6-1.82,4.74-3.98,5.67l6.93.5-.35,4.15-6.82-.49s-1.1,16,3.72,16.95c4.83.95,8.39-6.06,8.39-6.06-.04-.34-2.3-.71-2.3-.71l7.05-8.31h0ZM204.65,26.77c.18-2.11-1.26-3.93-3.21-4.07-1.94-.14-3.67,1.44-3.84,3.55s1.27,3.94,3.21,4.08c1.95.14,3.67-1.46,3.84-3.56Z"/>
    <path class="cls-4" d="M201.44,22.7c1.95.14,3.39,1.96,3.21,4.07-.17,2.1-1.89,3.7-3.84,3.56-1.94-.14-3.38-1.97-3.21-4.08s1.9-3.69,3.84-3.55Z"/>
    <path class="cls-1" d="M198.33,20.41c-5.19,6.3-.87,11.2-.51,11.59-1.97-1.22-3.21-3.56-2.99-6.16.2-2.39,1.58-4.4,3.5-5.43Z"/>
    <path class="cls-1" d="M190.91,31.52l1.57.11s-.87,2.1,0,4.18l-1.91-.14s.34-4.15.34-4.15Z"/>
    <path class="cls-1" d="M197.67,69.34c-10.38-6.27-18.21-22.93-18.21-22.93l-3.13,1.71,4.09-12.54-2.22,9.99,2.51-1.34c-.54.46,2.68,11.31,16.96,25.11h0Z"/>
    <path class="cls-13" d="M161.49,71.4c-4.96,1.75-14.98,7.57-17.4,9.26-2.43,1.7-2.94,5.58-3.13,7.49-.19,1.92.73,4.06.73,4.06-2.14.58-3.65,1.28-4.5,2.07,0,0-.5-1.39,0-4.16.5-2.78-1.41-5,1.45-7.54,2.08-1.85,8.47-6.86,22.85-11.18h0Z"/>
    <path class="cls-1" d="M134.22,98.69c.54-1.45,1.45-2.98,2.97-4.41.85-.79,2.36-1.49,4.5-2.07,1.27-.34,2.75-.65,4.44-.91-3.09,3.86-1.06,11.54-1.06,11.54h0c-3.78.51-7.54,1.14-11.3,1.88,0,0-.72-2.78.46-6.03h-.01Z"/>
    <path class="cls-13" d="M133.76,104.72c3.76-.74,7.52-1.37,11.3-1.88-7.85,3.98-22.57,19.9-22.57,19.9-12.43.53-15.41,4.72-15.85,5.5.05-.15.13-.3.2-.45,5.37-10.82,26.92-23.07,26.92-23.07h0Z"/>
    <path class="cls-4" d="M114.74,130.06c4.49-2.31,10.83-2.88,17.66-2.57,0,0-13.59,11.99-17.66,16.92,0,0-11.47-8.45,0-14.35Z"/>
  </g>
</svg>