<?xml version="1.0" encoding="UTF-8"?>
<svg xmlns="http://www.w3.org/2000/svg" version="1.1" viewBox="0 0 1080 1080">
  <!-- Generator: Adobe Illustrator 29.0.1, SVG Export Plug-In . SVG Version: 2.1.0 Build 192)  -->
  <defs>
    <style>
      .st0 {
        fill: #3c324c;
      }

      .st1 {
        fill: #fff;
      }

      .st2 {
        fill: #1a172d;
      }

      .st3 {
        fill: #e2d454;
      }

      .st4 {
        fill: #898dad;
      }

      .st5 {
        fill: #2c3349;
      }

      .st6 {
        fill: #667791;
      }

      .st7 {
        fill: #f5e5e4;
      }

      .st8 {
        fill: #a32437;
      }

      .st9 {
        fill: #d8e3ea;
      }

      .st10 {
        fill: #c63644;
      }

      .st11 {
        fill: #b1292b;
      }

      .st12 {
        fill: #f2a96d;
      }
    </style>
  </defs>
  <g id="cape_2">
    <g>
      <path class="st8" d="M756.8,648.1s-9.7,19.9-30.3,13.5c-20.6-6.4-21.3,29.1-19.9,51.8,1.4,22.5,8.8,66.7,9,67.5-41.6,12.2-72.3,52-99.6,37.3,0,0-8.5-62.3-10.8-71.5-2.3-9.2-5-125.6,44.5-159.4,49.4-33.8,107.2,60.8,107.2,60.8Z"/>
      <path class="st8" d="M798.1,794.8h0c-22.9,1.5-25.8-9.4-38.8-14.9,0,0-5.6-81.5,0-95,5.6-13.5,22.1,22,30.4,48.4,8.4,26.4,8.4,61.5,8.4,61.5Z"/>
      <path class="st11" d="M743.5,567.4c31.7,36.6,154.8,139.5,215.5,117.5,0,0-68.6,86.6-135.5,105.1-10.6,2.9-18.9,4.4-25.4,4.8h0s0-35.2-8.4-61.6c-8.4-26.3-24.8-61.9-30.4-48.4-5.6,13.5,0,95,0,95-6.9-2.9-16.5-4.2-33.4-1.4-3.5.6-6.9,1.4-10.3,2.4-.1-.9-7.5-45-9-67.5-1.4-22.7-.7-58.2,19.9-51.8,20.6,6.4,30.3-13.5,30.3-13.5,0,0-57.7-94.5-107.2-60.8-49.4,33.8-46.8,150.2-44.5,159.4,2.3,9.2,10.8,71.5,10.8,71.5-7-3.8-13.9-11.2-20.6-23.6-35-64.5-148.6-99.7-155.1-116.4-6.5-16.7,206.1-156.9,206.1-156.9,0,0,65.4,9.4,97.1,46Z"/>
    </g>
  </g>
  <g id="Layer_1">
    <g id="feet">
      <g>
        <path class="st12" d="M629.4,834.2c.6.5,15.5,11,27.5,21.3,9.5,8.2,17.2,16.4,14.5,19.3-6.2,6.7-32.8-8.9-43.4-1.4-10.5,7.4.5,15.6-3.4,20.3-3.8,4.7-18.9-4.5-35-18.8-16-14.4-26.7-36.7-25.6-41.9s3.3-8.8,21.3-15.7c13.6-5.5,21.9-6.1,30.4-4.9,8.5,1.2,33.5,10.9,45.6,18.4,12.1,7.5,24.9,15.5,22.8,19.7-2.1,4.2-13.2,1.7-17.5,1.5-1.3,0-2.8.2-4.1.7l.9-.4c-11.5-11.7-33.2-17.8-33.9-18h0Z"/>
        <path class="st12" d="M663.3,852.3l-.9.4c-3.1,1-5.7,2.8-5.6,2.9-12-10.4-26.8-20.9-27.5-21.3.7.2,22.4,6.3,33.9,18h0Z"/>
        <path class="st12" d="M662.5,852.7l-5.6,2.9c-.1,0,2.5-1.8,5.6-2.9Z"/>
        <path class="st12" d="M406,840.7c-1.4.8-24.4,14.5-28.4,18.4-6.4-1.9-19,3.1-22.6-2-2.9-4,9-14.4,21.6-20.9,12.6-6.5,28.7-12,28.7-12,1.3-.7,25.2-10.2,48.8-3.6,9,1.8,24.6,8.1,22.2,16.6-2.5,8.5-37.6,57-51.5,57.2-10.4.2-6-9.6-6.4-13.5-.4-3.9-3.1-7.6-12.9-5.5-9.8,2.1-21.9,8.3-30.5,7.8-8.6-.5-6.2-9.4,2.7-18.6.9-1,2-2,3.1-3.1,9.3-8.7,24.1-19.9,25.2-20.8h0Z"/>
        <path class="st12" d="M406,840.7c-1.1.9-15.9,12.1-25.2,20.8-.7-1.2-1.8-2-3.2-2.4,4-4,27-17.6,28.4-18.4Z"/>
        <path class="st12" d="M380.7,861.5l-3.2-2.4c1.4.4,2.5,1.2,3.2,2.4Z"/>
      </g>
    </g>
    <g id="a_arm">
      <path class="st0" d="M427.6,519c-7.1,2.1-22.4,15.2-35.9,28.9-14.9,15.1-31,36.2-36.2,46.5-10,19.5-20,57.4-11.2,61.1s15.4-19.5,34.1-30.8c8.4-5.1,32.8-15.5,63.4-53.2,30.7-37.7-7.1-54.6-14.2-52.5h0Z"/>
    </g>
    <g id="b_arm1" data-name="b_arm">
      <path class="st0" d="M651.8,528.4c4.2,0,12.8,11.2,23.2,17.9,10.3,6.7,35.4,17.6,56.3,39.7s34.5,60.8,24.8,66.3c-6.6,3.3-15.4-12.8-36.1-23.3s-46.1-10.7-57.1-20.9-19.5-33.9-19.5-45.9,4.2-33.9,8.4-33.9h0Z"/>
    </g>
    <g id="body">
      <g>
        <path class="st0" d="M681.2,612.9s16.8,59.5,14.9,128.1c-1.1,39.2-31.7,68.6-70.7,86.7,34.5-23,43.3-71.2,44.4-102.3,1.1-31.1-6.1-92.6-32.2-135.1-24.5-43.8-70.4-57.7-95.4-62.9-25-5.2-72.8-14.3-111.5,10.1-38.6,24.3-60.4,113-58.6,174.6,1.5,59.4,45.1,107.3,46.2,108.5-6.6-4.3-12.8-9.2-18.2-14.8-58.2-48.5-34.5-154.5-33.5-157.1,22.6-92.5,40.8-112.5,46.7-123.7,5.9-11.1,7-18.2,6.9-25.2-.1-5.8-4.2-13.4-4.2-13.4,0,0-6.3-11.7,4.2-22.7,10.5-11,62.7-19.7,94.3-17.1,31.6,2.6,132.5,20.4,137.9,32.4,5.4,12,8.3,27.3,7,33-1.3,5.6-1,14.5,1.3,23.6l20.6,77.4h0Z"/>
        <path class="st7" d="M637.6,590.4c26.1,42.5,33.3,104,32.2,135.1-1.1,31.1-9.9,79.3-44.4,102.3-29.3,13.6-63.4,20.8-93.2,20.8s-80-5.9-113.9-27.9c-1.1-1.2-44.7-49.1-46.2-108.5-1.8-61.6,20-150.2,58.6-174.6,38.6-24.3,86.4-15.3,111.5-10.1,25.1,5.2,71,19.2,95.4,62.9h0Z"/>
      </g>
    </g>
    <g id="head">
      <g>
        <path class="st0" d="M555.7,265.4c-.5-.3-10.9-5.8-14.5-8.8-3.7-3-7.9-11.4-8-11.6.4.3,14.2,9.8,17.1,11.4,3,1.6,14,8.5,20.7,10.7,6.8,2.1,44.7,14.1,64.1,31.3,19.4,17.2,62.5,71.5,49.8,144.2-6.3,36.6-18.9,61.4-26.4,70.4-7.4,9-78.5,10.6-106.8,9.8-28.3-.8-62-5.8-82.3-9.8s-43-12.3-48.7-17.7c-5.7-5.4-26.8-33.1-26.8-59.1.5-15.1,5.3-14.4,17.1-50.4,15.6-47.4,39.3-71.2,39.3-71.2,19.7-21.8,49.6-41.3,106.9-44.4,0,0-5.6-.3-11.2-1.8-5.6-1.5-11.9-5.4-11.9-5.4,0,0,7.5-.7,11.8,0,4.1.6,9.5,2.3,9.9,2.4h0ZM637.4,494.7c37.7-29.7,32.2-83.7,32.2-83.7-3.9-46.2-22.3-71.6-52.5-80.1-34.5-9.4-61.1,21.2-67.8,51.7-6.7,30.4,6.7,53.5,6.7,53.5l-80.6-10.9c20.5-24.7,24.5-47.8,24.5-47.8,6.8-31.1,1.8-51.9-15.2-62.3-18.6-7.7-38.4,11.5-47.4,29.3-14.2,26.8-12.6,33.3-20.2,51.8-7.6,18.4-14.6,30.8-14.3,47.5.2,12.2,7.6,38.8,31,49.6s45,19.6,87.8,23c42.7,3.5,97.8-4.1,115.8-21.5h0Z"/>
        <path class="st7" d="M669.5,411s5.5,53.9-32.2,83.7c-18,17.4-73.1,25-115.8,21.5-42.7-3.5-64.3-12.2-87.8-23s-30.8-37.5-31-49.6c-.3-16.7,6.7-29,14.3-47.5,7.6-18.5,6-24.9,20.2-51.8,9-17.8,28.7-37,47.4-29.3,16.9,10.4,22,31.2,15.2,62.3,0,0-4.1,23.1-24.5,47.8l80.6,10.9s-13.4-23-6.7-53.5c6.7-30.4,33.2-61.1,67.8-51.7,30.2,8.5,48.6,33.9,52.5,80.1h0Z"/>
      </g>
    </g>
    <g id="peck">
      <g>
        <path class="st12" d="M577.1,438.7c0,2.9-9.3,18.3-20.1,25.5-10.8,7.2-33.5,14.8-48.6,13.3-23.3-2.2-39.9-19.2-44.8-25s-13.2-18.4-11.8-22.6c1.4-4.1,17.8-3.7,24.5-10.9,6.7-7.2,21.6-17.7,42.7-15.3,21,2.4,35,20.3,39.1,22.5,4.1,2.1,19.1,10.5,19.1,12.4ZM554.1,436.8c.1-.4.1-.9,0-1.3,0-.2-.2-.4-.3-.5-.4-.4-1.1-.4-1.6-.1-.5.3-.8.8-.9,1.4,0,.4,0,.8,0,1.1.1.4.5.8.8.9.4.1.9-.1,1.2-.4.3-.3.6-.7.7-1.1h0ZM549.6,436c4.1-4.2-.6-11.9-5-17s-15.5-12.8-30.7-13.5c-15.2-.7-15.2,9-15.2,9-.4,1.9.8,9.8,8.7,12.3,8,2.5,10,2.2,13.6,4.1s9.7,5.5,14.3,7.4c4.6,1.8,10.2,1.9,14.3-2.3h0Z"/>
        <path class="st7" d="M554.1,435.5c.2.4.2.9,0,1.3s-.4.8-.7,1.1c-.3.3-.8.5-1.2.4-.4,0-.7-.5-.8-.9-.1-.4-.2-.8,0-1.1.1-.6.4-1.1.9-1.4.5-.3,1.2-.3,1.6.1.2.1.3.3.3.5h0Z"/>
        <path class="st7" d="M544.6,419c4.4,5.1,9,12.8,5,17-4.1,4.2-9.7,4.1-14.3,2.3-4.6-1.8-10.6-5.4-14.3-7.4s-5.6-1.6-13.6-4.1c-8-2.5-9.1-10.4-8.7-12.3,0,0,0-9.7,15.2-9,15.2.7,26.3,8.4,30.7,13.5h0Z"/>
      </g>
    </g>
    <g id="mouth">
      <path class="st0" d="M572,438.2s-25.9,16.4-62.8,16.2c-24.9-.6-51.1-22.8-51.1-22.8,0,0,16.1,25,52.1,26.3,41.4,1.5,61.8-19.8,61.8-19.8h0Z"/>
    </g>
    <g id="eyes">
      <g>
        <path class="st0" d="M604.2,373.8c13.7,0,24.8,12.2,24.8,27.3s-11.1,27.3-24.8,27.3-24.8-12.2-24.8-27.3,11.1-27.3,24.8-27.3ZM620.5,400.9c3.6-2.5,3.8-8.6.3-13.5-3.5-4.9-9.2-6.8-12.8-4.3-3.6,2.5-3.7,8.6-.3,13.5,3.5,4.9,9.2,6.9,12.8,4.3ZM616.6,419.9c1.2-.9,1.4-2.7.4-4.2s-2.8-1.9-4.1-1c-1.2.9-1.4,2.8-.4,4.2,1,1.5,2.8,1.9,4.1,1ZM603.5,422c.7-.5.8-1.4.2-2.2-.5-.7-1.5-1-2.1-.5s-.8,1.4-.2,2.2c.5.7,1.5,1,2.1.5ZM596.4,415.4c.6-.4.7-1.4.2-2.1-.5-.7-1.5-1-2.1-.5-.6.4-.7,1.4-.2,2.1s1.5,1,2.1.5ZM590.1,403.2c2.2-1.5,2.4-4.9.5-7.6s-5.2-3.7-7.3-2.1c-2.2,1.5-2.4,4.9-.5,7.6,1.9,2.7,5.2,3.7,7.3,2.1Z"/>
        <path class="st1" d="M620.8,387.4c3.5,4.9,3.3,11-.3,13.5-3.6,2.5-9.3.6-12.8-4.3-3.5-4.9-3.3-11,.3-13.5,3.6-2.5,9.3-.6,12.8,4.3Z"/>
        <path class="st1" d="M617,415.7c1,1.5.8,3.3-.4,4.2-1.2.9-3.1.4-4.1-1-1-1.4-.8-3.3.4-4.2,1.2-.9,3.1-.4,4.1,1Z"/>
        <path class="st1" d="M603.8,419.8c.5.7.4,1.7-.2,2.2s-1.6.2-2.1-.5c-.5-.7-.4-1.7.2-2.2s1.6-.2,2.1.5Z"/>
        <path class="st1" d="M596.6,413.3c.5.7.4,1.7-.2,2.1-.6.5-1.6.2-2.1-.5s-.4-1.7.2-2.1c.6-.5,1.6-.2,2.1.5Z"/>
        <path class="st1" d="M590.6,395.5c1.9,2.7,1.7,6.1-.5,7.6-2.2,1.5-5.4.5-7.3-2.1-1.9-2.7-1.7-6.1.5-7.6,2.2-1.5,5.4-.5,7.3,2.1Z"/>
        <path class="st0" d="M460,365.3c12.6,0,22.8,11.4,22.8,25.4s-10.2,25.4-22.8,25.4-22.8-11.4-22.8-25.4,10.2-25.4,22.8-25.4ZM475.5,390.8c3.2-1.9,3.6-7.1,1-11.7s-7.5-6.8-10.7-4.9c-3.2,1.9-3.6,7.1-1,11.7s7.5,6.8,10.7,4.9ZM455.2,405.9c.5-.3.6-1.1.2-1.7-.4-.7-1.1-1-1.6-.7-.5.3-.6,1.1-.2,1.7.4.6,1.1,1,1.6.7h0ZM449.7,401.4c.5-.3.6-1.1.2-1.7-.4-.6-1.1-1-1.6-.7-.5.3-.6,1.1-.2,1.7.4.7,1.1,1,1.6.7h0ZM447,391c1.9-1.1,2.3-3.9,1-6.2-1.4-2.3-4-3.3-5.9-2.2s-2.3,3.9-1,6.2c1.4,2.3,4,3.3,5.9,2.2h0Z"/>
        <path class="st1" d="M476.5,379.1c2.7,4.6,2.2,9.8-1,11.7-3.2,1.9-8-.3-10.7-4.9s-2.3-9.8,1-11.7c3.2-1.9,8,.3,10.7,4.9Z"/>
        <path class="st1" d="M455.4,404.2c.4.6.3,1.4-.2,1.7-.5.3-1.2,0-1.6-.7-.4-.7-.3-1.4.2-1.7.5-.3,1.2,0,1.6.7h0Z"/>
        <path class="st1" d="M449.9,399.6c.4.7.3,1.4-.2,1.7-.5.3-1.2,0-1.6-.7-.4-.6-.3-1.4.2-1.7.5-.3,1.2,0,1.6.7h0Z"/>
        <path class="st1" d="M447.9,384.7c1.4,2.3.9,5.1-1,6.2-1.9,1.1-4.5.1-5.9-2.2-1.4-2.3-.9-5.1,1-6.2s4.5-.1,5.9,2.2h0Z"/>
      </g>
    </g>
    <g id="a_brow">
      <path class="st0" d="M435.6,371c.2-.3,15-18.4,31.2-12.1,16.2,6.3,19.2,25.2,19.4,25.1s1.1-22.8-18.8-29.6-31.8,16.6-31.8,16.6h0Z"/>
    </g>
    <g id="b_brow">
      <path class="st0" d="M631.1,380s-13.2-14.1-29.4-10.2-25.3,21.8-25.5,22.2c0,0,4.7-23.7,27-26.6,20.5-2.7,27.9,14.6,27.9,14.6h0Z"/>
    </g>
  </g>
  <g id="cape">
    <g>
      <path class="st11" d="M660.5,522.7c.3.7-1.2,10.3-1.2,10.3-48.4,12.3-93.7,18.6-134.4,16.5.1-1.5.5-6.9.7-9.9,32.1,1.4,71.6-7.6,133.7-27.9,0,0,.9,10.3,1.2,11Z"/>
      <path class="st10" d="M525.6,539.6c-.1,3-.6,8.4-.7,9.9,0,.3,0,.4,0,.4,17.6,7.4,14.2,27.2,14.2,27.2-13-1.3-25.4-26.5-26.1-28.5h0c0-.3-1.9-6.7-.2-10.2.5-.9,1.2-1.6,2.2-2,5.2-1.6,10.4.2,10.6,1.1,0,.2,0,1,0,2Z"/>
      <path class="st10" d="M503.7,547.5c0-.4-2.3-7.7-.9-10.9,3.3-4.2,10.2-1,10,1.8-1.8,3.4,0,9.9.2,10.2h0c0,.1,0,.2,0,.3-3.8,11.5-30.2,25.6-30.2,25.6,7.3-26.6,20.3-27,21-27h0Z"/>
      <path class="st11" d="M502.8,536.6c-1.3,3.3.9,10.5.9,10.9h0c-32.1-4.2-61.1-14.4-86.1-31.8l1.2-21.9c32.9,22.3,57,36.8,83.9,42.8Z"/>
    </g>
  </g>
  <g id="sword1" data-name="sword">
    <g>
      <path class="st4" d="M351.1,608.4c3.4-2.1,7.8-1.1,9.9,2.3,0,0-40.5,23.8-42.7,26.9s.2,7.1.8,8l-1.9,1.2c-3.4,2.1-7.8,1.1-9.9-2.3s-1.3-3.6-.9-5.4c.4-1.8,1.5-3.4,3.2-4.5l8.6-5.4,12.2-7.7,12.2-7.7,8.6-5.4Z"/>
      <path class="st5" d="M361,610.6c1.1,1.7,1.3,3.6.9,5.4s-1.5,3.4-3.2,4.5l-7.4,4.7-26.8,16.9-5.5,3.5c-.5-.9-3-4.9-.8-8s42.7-26.9,42.7-26.9Z"/>
      <path class="st6" d="M239.8,477.8l32.8,16.9s69.2,117.9,69.9,119.1l-12.2,7.7-90.5-143.7Z"/>
      <path class="st0" d="M351.4,625.2l6.1,9.7c3.5,5.6,1.8,13-3.7,16.5l-6.6,4.2c-5.6,3.5-12.9,1.8-16.5-3.7l-6.1-9.7,26.8-16.9Z"/>
      <path class="st2" d="M361.7,661.8c1.9.4,3.7,1.5,4.8,3.3,2.2,3.5,1.1,8-2.3,10.2s-8,1.1-10.2-2.3-1.4-3.9-.9-5.8l8.6-5.4ZM363.5,667.5c-1.1-1.7-3.3-2.2-4.9-1.1s-2.2,3.3-1.1,4.9,3.3,2.2,4.9,1.1,2.2-3.3,1.1-4.9Z"/>
      <polygon class="st5" points="354.7 650.7 361.7 661.8 353.1 667.2 346.1 656.1 347.1 655.5 353.7 651.3 354.7 650.7"/>
      <path class="st9" d="M239.8,477.8l90.5,143.7-12.2,7.7c-.8-1.3-77.2-114.5-77.2-114.5l-1-36.8Z"/>
    </g>
  </g>
  <g id="Layer_8">
    <g>
      <path class="st3" d="M807,573.1v65.9c0,29.5-5.5,58.7-16.2,85.9l-9.5,23.9c-10.4,26-36.3,41.9-65.1,40.2l-6.8-.4-6.8-.4c-28.9-1.7-54.7-19.8-65.1-45.3l-9.5-23c-10.7-25.8-16.2-52.9-16.2-80.1v-60.7s44.7-29.3,97.6-31.5c52.9-2.2,97.6,25.6,97.6,25.6ZM783.4,639.1v-49.9c-15-7.2-43.3-18.1-74-17.1-30.8,1-59,13-74,20.6v46.9c0,24.4,4.8,48.4,14.3,71.5l9.5,23.2c6.7,16.5,24.1,28.2,43.4,29.2l13.5.7c19.3.9,36.7-9.5,43.4-26.1l9.5-23.7c9.5-24,14.3-49.4,14.3-75.3Z"/>
      <path class="st6" d="M783.4,589.2v49.9c0,26-4.8,51.4-14.3,75.3l-9.5,23.7c-6.7,16.6-24.1,27.1-43.4,26.1l-13.5-.7c-19.3-.9-36.7-12.7-43.4-29.2l-9.5-23.2c-9.5-23.1-14.3-47.1-14.3-71.5v-46.9c15-7.6,43.2-19.6,74-20.6,30.7-1,58.9,9.9,74,17.1ZM731,674.6l30.3-23.1h-37.4c0,0-11.6-37.3-11.6-37.3l-11.6,37.2h-37.4c0,0,30.3,22.8,30.3,22.8l-11.6,36.6,30.3-22.2,30.3,23.8-11.6-37.8Z"/>
      <polygon class="st3" points="761.3 651.5 731 674.6 742.6 712.4 712.3 688.6 682 710.7 693.6 674.2 663.3 651.3 700.7 651.4 712.3 614.2 723.9 651.4 761.3 651.5"/>
    </g>
  </g>
</svg>