<?xml version='1.0' encoding='UTF-8'?>
<svg xmlns="http://www.w3.org/2000/svg" id="Layer_1" version="1.1" viewBox="0 0 1907.31 276.25">
  
  <defs>
    <style>
      .st0 {
        fill: #fff;
      }
    </style>
  </defs>
  <path class="st0" d="M908.62,82.04c-21.11,0-41.08,6.21-57.09,17.68-12.02-11.46-29.82-17.68-50.93-17.68-44.43,0-83.82,27.47-91.87,73.6l-16.92,97.01h49.86l15.56-89.21c4.14-23.74,16.77-33.92,35.09-33.92,17.02,0,26.04,8.8,23.92,29.08l-16.4,94.05h50.04l16.4-94.05c4.95-20.28,17.05-29.08,34.06-29.08,18.32,0,27.4,10.18,23.26,33.92l-15.56,89.21h49.86l16.92-97.01c8.05-46.13-21.76-73.6-66.19-73.6Z" />
  <path class="st0" d="M194.53,169.58l26.21-150.24h-50.88l-12.28,70.43c-10.34-4.7-22.46-7.28-36.04-7.28-51.22,0-94.52,36.29-103.39,87.17-8.87,50.88,21.77,87.17,72.99,87.17,13.59,0,26.6-2.58,38.58-7.28l-.58,3.31h50.88l14.5-83.12s.01-.06.02-.09,0-.06.01-.09ZM99.58,208.34c-21.37,0-34.59-15.6-30.57-38.67,4.02-23.06,22.69-38.67,44.06-38.67s34.59,15.6,30.57,38.67c-4.02,23.06-22.69,38.67-44.06,38.67Z" />
  <path class="st0" d="M1864.45,169.67s0-.06.01-.09l26.2-150.23h-50.88l-12.28,70.43c-10.34-4.7-22.46-7.28-36.04-7.28-51.22,0-94.52,36.29-103.39,87.17-8.87,50.88,21.77,87.17,72.99,87.17,13.59,0,26.6-2.58,38.58-7.28l-.58,3.31h50.88l14.5-83.11s.01-.06.02-.09ZM1769.51,208.34c-21.37,0-34.59-15.6-30.57-38.67,4.02-23.06,22.69-38.67,44.06-38.67s34.59,15.6,30.57,38.67c-4.02,23.06-22.69,38.67-44.06,38.67Z" />
  <path class="st0" d="M1093.29,82.5c-13.59,0-26.6,2.58-38.58,7.28l12.28-70.43h-50.88l-26.21,150.24s-.01.06-.02.09,0,.06-.01.09l-14.5,83.12h50.88l.58-3.31c10.34,4.7,22.46,7.28,36.04,7.28,51.22,0,94.52-36.29,103.39-87.17,8.87-50.88-21.77-87.17-72.99-87.17ZM1071.34,208.34c-21.37,0-34.59-15.6-30.57-38.67,4.02-23.06,22.69-38.67,44.06-38.67s34.59,15.6,30.57,38.67c-4.02,23.06-22.69,38.67-44.06,38.67Z" />
  <path class="st0" d="M1280.86,82.42c-51.22,0-94.52,36.29-103.39,87.17-8.87,50.88,21.77,87.17,72.99,87.17s94.52-36.29,103.39-87.17c8.87-50.88-21.77-87.17-72.98-87.17ZM1258.91,208.26c-21.37,0-34.59-15.6-30.57-38.67,4.02-23.06,22.69-38.67,44.06-38.67s34.59,15.6,30.57,38.67c-4.02,23.06-22.69,38.67-44.06,38.67Z" />
  <path class="st0" d="M230.46,111.17c-8.05,11.94-10.38,23.53-10.76,25.74l-20.27,116.21h51.39l20.76-119.01h53.75l8.96-51.39h-50.95c-21.41,0-40.68,10.37-52.87,28.45Z" />
  <path class="st0" d="M688.87,169.58l.36-2.08h-.05c7.63-49.73-22.83-85-73.31-85s-94.52,36.29-103.4,87.17c-8.87,50.88,21.77,87.17,72.99,87.17,13.59,0,26.6-2.58,38.58-7.28l-.58,3.31h50.88l14.5-83.11s.01-.06.02-.09,0-.06.01-.09ZM593.93,208.34c-21.37,0-34.59-15.6-30.57-38.67,4.02-23.06,22.69-38.67,44.06-38.67s34.59,15.6,30.57,38.67c-4.02,23.06-22.69,38.67-44.06,38.67Z" />
  <path class="st0" d="M428.51,82.5c-50.85,0-94.41,35.93-103.33,87.12-8.93,51.19,22.09,87.12,72.94,87.12,41.36,0,77.08-24.07,94.02-58.98h-51.53c-7.82,9.83-20.13,16.27-35.72,16.27-20.34,0-31.27-11.19-32.88-29.15h125.77c1.11-4.41,2.27-9.15,3.16-14.24,9.05-51.87-20.9-88.14-72.43-88.14ZM378.54,151.31c8.26-16.27,23.54-26.1,42.18-26.1s30.09,10.17,31.72,26.1h-73.9Z" />
<path class="st0" d="M1541.24,169.58l.36-2.08h-.05c7.63-49.73-22.83-85-73.31-85s-94.52,36.29-103.4,87.17c-8.87,50.88,21.77,87.17,72.99,87.17,13.59,0,26.6-2.58,38.58-7.28l-.58,3.31h50.88l14.5-83.11s.01-.06.02-.09,0-.06.01-.09ZM1446.30,208.34c-21.37,0-34.59-15.6-30.57-38.67,4.02-23.06,22.69-38.67,44.06-38.67s34.59,15.6,30.57,38.67c-4.02,23.06-22.69,38.67-44.06,38.67Z" /><path class="st0" d="M1575.24,111.17c-8.05,11.94-10.38,23.53-10.76,25.74l-20.27,116.21h51.39l20.76-119.01h53.75l8.96-51.39h-50.95c-21.41,0-40.68,10.37-52.87,28.45Z" /></svg>