<?xml version="1.0" encoding="UTF-8"?>
<svg id="Layer_1" xmlns="http://www.w3.org/2000/svg" version="1.1" viewBox="0 0 1080 1080">
  <!-- Generator: Adobe Illustrator 29.0.0, SVG Export Plug-In . SVG Version: 2.1.0 Build 186)  -->
  <defs>
    <style>
      .st0 {
        fill: #04299e;
      }
    </style>
  </defs>
  <path class="st0" d="M223.41,591.8l8.06,6.39,22.24,18.41c-33.46,33.95-62.9,68.11-94.59,106.13-14.14,16.96-42.12,59.97-50.86,81.6-7.57,18.74-7.89,32.95-5.34,39.27.94,2.33,4.65,2.36,5.12-.11,7.23-38.52,50.99-87.85,81.83-122,29.87-33.08,60.29-61.54,89.1-85.3l12.01,9.23c6.58,5.21,9.39,13.87,7.13,21.95l-18.52,66.31c-.43,1.53,1.34,2.74,2.61,1.79,31.53-23.69,62.64-47.98,93.48-72.52,102.98-82.61,203.59-170.07,297.35-263.05,6.54-6.58,13.22-13.31,19.94-20.16.91-.93.46-2.46-.79-2.81-6.37-1.75-11.64-6.47-14-12.83l-32.53-87.49c30.74-16.47,61.99-31.85,94.03-45.45,17.92-7.45,35.92-14.81,54.11-20.38,14.2-4.35,26.29-6.95,35.61-6.52,1.67.08,2.56-1.95,1.32-3.07-3.96-3.57-12.78-8.15-27.16-8.15-45.09,0-133.52,43.07-166.65,60.06l-4.89-13.15-2.39-6.41-3.95-10.62-68.72-184.81c-6.74-18.11-32.35-18.11-39.09,0l-106.68,286.89c-11.74,31.56-41.26,53.01-74.9,54.42l-302.54,12.66c-20.44.86-28.82,26.65-12.79,39.35l201.49,159.62.95.75Z"/>
  <path class="st0" d="M1047.42,398.54l-204.83-8.63c-2.26-.09-4.34.92-6.01,2.44-12.02,10.99-27.09,22.73-38.62,32.87-1.55,1.36-3.76-.53-2.56-2.21,7.92-11.06,23.7-34.03,23.7-34.03,25.47-37.51,48.43-76.72,67.38-118.3,14.99-35.67,33.56-89.04-1.17-120.37-17.41-16.21-58.19-15.33-81.38-10.48-23.78,4.97-52.83,14.66-75.32,27.16-1.41.78-1.96,2.54-1.29,4.01.67,1.48,2.39,2.18,3.91,1.62,28.91-10.7,55.48-20.1,88.84-20.21,43.69-.14,50.18,33.32,37.04,68.84-8.61,23.81-21.48,44.98-35.44,65.71-13.98,19.96-29.95,38.58-45.67,56.76-12.63,14.12-25.43,28.06-38.4,41.86-130.86,139.2-278.5,262.19-431.45,376.31-12.11,8.98-24.43,17.7-36.93,26.19-19.25,13.06-38.93,25.52-58.97,37.3-25.06,14.6-50.69,28.79-78.03,39.25-10.43,3.94-21.98,7.57-34.07,8.21-15.75.63-29.48-7.18-32.15-23.87-2.27-18.86,6.14-37.17,13.72-53.52,21.9-45.33,45.33-71.52,70.68-105.24,1.29-1.72,1.16-4.27-.53-5.59-1.68-1.32-3.94-.98-5.35.49-53.49,55.72-104,125.01-109.57,169.34-5.22,40.12,25.58,64.13,62.46,64.99,44.78,1.27,100.76-20.27,146.61-41.06,0,0,32.71-16.74,48.4-25,1.82-.96,3.36,1.44,1.84,2.83-14.89,13.62-37.47,34.28-55.88,48.73-1.59,1.24-2.87,2.84-3.41,4.78l-27.34,98.97c-5.2,18.61,15.53,33.67,31.62,22.98l253.98-168.76c28.63-19.02,65.87-19.02,94.5,0l253.98,168.76c16.09,10.69,36.82-4.36,31.62-22.98l-93.55-334.99c-2.26-8.09.55-16.74,7.13-21.95l272.59-216.03c15.15-12,7.23-36.37-12.08-37.18Z"/>
</svg>